<svg xmlns="http://www.w3.org/2000/svg" viewBox="0 0 417 126.5"><defs><style>.cls-1{fill:none;}.cls-2{fill:#fff;}</style></defs><g id="레이어_2" data-name="레이어 2"><g id="레이어_1-2" data-name="레이어 1"><path class="cls-1" d="M417,124.45V2.05c0-.41,0-.83,0-1.24.07-.59,0-.92-.74-.78a6.5,6.5,0,0,1-1.25,0H2.13A12.49,12.49,0,0,1,.63,0C.07,0,0,.19,0,.68s0,1,0,1.5V124.33c0,2.13,0,2.13,2.11,2.13H414.49a11.33,11.33,0,0,1,1.75,0c.72.11.81-.2.74-.78C416.94,125.29,417,124.87,417,124.45ZM91,88.26c-.68,2-1.19,4.14-1.74,6.22a1.34,1.34,0,0,1-1.56,1.15q-6.12-.09-12.23,0c-1,0-1.39-.41-1.65-1.36-1.62-5.83-3.31-11.63-5-17.44-.73-2.55-.73-2.55-3.51-2.55-3.58,0-7.16,0-10.73,0a1.89,1.89,0,0,0-2.23,1.65C50.67,82,48.83,88,47.15,94c-.32,1.17-.73,1.62-2,1.6-4.9-.07-9.81,0-14.72,0-1.67,0-1.69,0-1.24-1.62q5.46-19.1,10.93-38.2,2.59-9.06,5.22-18.13c.51-1.75.52-1.76,2.32-1.77,2.41,0,4.83,0,7.24,0,2.58,0,5.16,0,7.74,0,1,0,1.23.22.91,1.26C61.8,43,60.12,48.88,58.41,54.75c-.07.24-.17.47-.24.71-.47,1.71-.47,1.73,1.37,1.75,2.75,0,5.5-.08,8.24,0A3.73,3.73,0,0,0,71,55.81c5.65-6.2,11.36-12.34,17-18.54a3.84,3.84,0,0,1,3.21-1.42c4.49.09,9,0,13.47,0,.94,0,1.39.07,1,1.21-.7,2.12-1.28,4.28-1.86,6.43a6.59,6.59,0,0,1-1.89,2.86q-7.71,8-15.39,16c-1.66,1.72-1.66,1.73-1,4,1.79,6.18,3.56,12.36,5.39,18.53A5.33,5.33,0,0,1,91,88.26Zm71.18-19.72a14.41,14.41,0,0,1-8.21,5.27c-2.09.54-2.08.57-.86,2.45,1.85,2.85,3.62,5.74,5.58,8.52a4.19,4.19,0,0,1,.59,4.11c-.61,1.8-1.09,3.64-1.56,5.48a1.49,1.49,0,0,1-1.75,1.26c-4.07-.06-8.15-.08-12.22,0a2.4,2.4,0,0,1-2.47-1.5C137.93,88,134.48,82,131.16,75.91a2.68,2.68,0,0,0-2.89-1.67,40.23,40.23,0,0,1-5.49,0c-1.26-.07-1.68.44-2,1.59-1.69,6.06-3.52,12.08-5.19,18.14a1.85,1.85,0,0,1-2.19,1.66c-4.82-.07-9.64,0-14.47,0-1.72,0-1.74,0-1.24-1.78q4.41-15.51,8.85-31,3.6-12.52,7.21-25c.53-1.85.54-1.87,2.48-1.87h21.46c7.06,0,14.13,0,21.2,0A10.31,10.31,0,0,1,169,43.24a11.83,11.83,0,0,1,.09,6.87c-1,3.83-2.19,7.62-3.29,11.44A21.27,21.27,0,0,1,162.15,68.54Zm62,4.86H193.74c-.5,0-1,0-1.5,0-.9-.07-1.33.29-1.52,1.21-.25,1.21-.7,2.38-1,3.57s-.34,1.31,1.06,1.31h27.45c1.58,0,3.16,0,4.74,0,.9,0,1.41.08,1.06,1.24-1.34,4.53-2.64,9.06-3.86,13.62-.31,1.18-1,1.29-2,1.28-6.49,0-13,0-19.47,0H169.23c-.49,0-1,0-1.49,0-1,.07-1.1-.38-.87-1.2,1.3-4.44,2.58-8.9,3.86-13.35q6.21-21.6,12.4-43.2c.57-2,.58-2,2.65-2H234.2c.33,0,.66,0,1,0,1.72,0,1.72,0,1.3,1.58-.13.48-.26,1-.4,1.43-.72,2.38-1,5.06-2.29,7s-3.76,3.21-5.6,4.87A4.93,4.93,0,0,1,224.57,52c-8.4-.05-16.8,0-25.2,0-2.11,0-2.11,0-2.71,2-.32,1-.59,2.07-1,3.08s-.05,1.07.85,1.06c6,0,12,0,18,0,4.74,0,9.48,0,14.22,0,1.66,0,1.68,0,1.23,1.69q-1.67,6-3.36,12C226.12,73.39,226.1,73.39,224.19,73.4Zm71.1,13.94c-.65,2.31-1.31,4.62-1.9,6.94-.24.92-.6,1.36-1.66,1.35-4.82-.06-9.65,0-14.47,0-.89,0-1.14-.33-1.13-1.16,0-2.07-.05-4.14-.12-6.21-.05-1.56-.08-1.6-1.71-1.6-5.16,0-10.31,0-15.47,0-2.08,0-4.16,0-6.24,0a1.94,1.94,0,0,0-2,1.12c-1.27,2.22-2.68,4.37-4,6.58a2.18,2.18,0,0,1-2.14,1.31c-5.24-.07-10.48,0-15.71,0-1.1,0-1.25-.4-1-1.32.67-2.31,1.31-4.62,1.94-6.93a5.59,5.59,0,0,1,.94-1.73q17-24.24,33.93-48.49a2.76,2.76,0,0,1,2.68-1.29c3.33.06,6.65,0,10,0s6.82,0,10.23,0c1.73,0,1.78,0,2,1.71.57,4.44,1.08,8.88,1.63,13.32.78,6.32,1.58,12.64,2.36,19,.66,5.33,1.29,10.67,1.95,16A3.37,3.37,0,0,1,295.29,87.34Zm92.93-49.7q-6.9,24.11-13.82,48.21c-.79,2.78-1.63,5.56-2.33,8.37-.28,1.12-.81,1.41-1.9,1.4-5.16-.05-10.32,0-15.48,0-1.1,0-1.17-.32-.88-1.3q4.28-14.53,8.45-29.09c.2-.72,1.07-1.75.25-2.19s-1.51.69-2.05,1.4q-7.8,10.32-15.58,20.66a3.22,3.22,0,0,1-3.06,1.58c-2.24-.14-4.5-.07-6.74,0-1,0-1.43-.22-1.61-1.31-.9-5.39-1.91-10.76-2.89-16.13q-.46-2.58-.94-5.13c-.09-.45,0-1.05-.7-1.13-.87-.1-.87.61-1,1.12q-1.41,4.77-2.77,9.54c-1.95,6.77-3.93,13.52-5.81,20.3-.34,1.24-.8,1.74-2.15,1.71-4.91-.08-9.82,0-14.73,0-1.82,0-1.83,0-1.29-1.9q6.07-21,12.14-42c1.4-4.85,2.84-9.7,4.17-14.57a1.47,1.47,0,0,1,1.7-1.3c2.92,0,5.83,0,8.74,0,2.66,0,5.33,0,8,0,2,0,2,0,2.5,2.07q2.59,11.76,5.16,23.54a2.4,2.4,0,0,0,.09.48c.3.61-.06,1.65,1,1.75a2.59,2.59,0,0,0,2.66-.85c3.14-4.07,6.39-8.07,9.6-12.09,3.62-4.54,7.27-9.06,10.85-13.64a3,3,0,0,1,2.7-1.29c5.49.06,11,0,16.47,0C388.7,35.89,388.72,35.92,388.22,37.64Z"/><path class="cls-2" d="M386.94,35.88c-5.49,0-11,0-16.47,0a3,3,0,0,0-2.7,1.29c-3.58,4.58-7.23,9.1-10.85,13.64-3.21,4-6.46,8-9.6,12.09a2.59,2.59,0,0,1-2.66.85c-1.06-.1-.7-1.14-1-1.75a2.4,2.4,0,0,1-.09-.48Q341,49.72,338.41,38c-.46-2.06-.48-2.06-2.5-2.07-2.66,0-5.33,0-8,0-2.91,0-5.82,0-8.74,0a1.47,1.47,0,0,0-1.7,1.3c-1.33,4.87-2.77,9.72-4.17,14.57q-6.06,21-12.14,42c-.54,1.87-.53,1.89,1.29,1.9,4.91,0,9.82,0,14.73,0,1.35,0,1.81-.47,2.15-1.71,1.88-6.78,3.86-13.53,5.81-20.3q1.37-4.77,2.77-9.54c.15-.51.15-1.22,1-1.12.71.08.61.68.7,1.13q.48,2.55.94,5.13c1,5.37,2,10.74,2.89,16.13.18,1.09.62,1.33,1.61,1.31,2.24,0,4.5-.12,6.74,0a3.22,3.22,0,0,0,3.06-1.58q7.75-10.36,15.58-20.66c.54-.71,1.09-1.91,2.05-1.4s-.05,1.47-.25,2.19q-4.18,14.55-8.45,29.09c-.29,1-.22,1.31.88,1.3,5.16,0,10.32-.05,15.48,0,1.09,0,1.62-.28,1.9-1.4.7-2.81,1.54-5.59,2.33-8.37q6.92-24.1,13.82-48.21C388.72,35.92,388.7,35.89,386.94,35.88Z"/><path class="cls-2" d="M169,43.24a10.31,10.31,0,0,0-10.12-7.34c-7.07,0-14.14,0-21.2,0H116.23c-1.94,0-2,0-2.48,1.87q-3.61,12.53-7.21,25-4.44,15.51-8.85,31c-.5,1.74-.48,1.77,1.24,1.78,4.83,0,9.65,0,14.47,0A1.85,1.85,0,0,0,115.59,94c1.67-6.06,3.5-12.08,5.19-18.14.32-1.15.74-1.66,2-1.59a40.23,40.23,0,0,0,5.49,0,2.68,2.68,0,0,1,2.89,1.67c3.32,6.1,6.77,12.13,10.09,18.22a2.4,2.4,0,0,0,2.47,1.5c4.07-.08,8.15-.06,12.22,0a1.49,1.49,0,0,0,1.75-1.26c.47-1.84.95-3.68,1.56-5.48a4.19,4.19,0,0,0-.59-4.11c-2-2.78-3.73-5.67-5.58-8.52-1.22-1.88-1.23-1.91.86-2.45a14.41,14.41,0,0,0,8.21-5.27,21.27,21.27,0,0,0,3.66-7c1.1-3.82,2.29-7.61,3.29-11.44A11.83,11.83,0,0,0,169,43.24ZM150.33,53c-.61,1.8-1.13,3.64-1.57,5.48-.27,1.12-.85,1.37-1.94,1.36-5.66-.06-11.31,0-17,0h-3.5c-.6,0-1-.2-.63-.88a1,1,0,0,0,.07-.24c.59-2.15,1.19-4.3,1.78-6.45,2.13-.46,4.28-.12,6.43-.19,1.74-.06,3.49,0,5.23,0,3.41,0,6.82,0,10.23,0C150.22,52,150.7,51.91,150.33,53Z"/><path class="cls-2" d="M228.73,58.09c-4.74,0-9.48,0-14.22,0-6,0-12,0-18,0-.9,0-1.19-.14-.85-1.06s.65-2,1-3.08c.6-2,.6-2,2.71-2,8.4,0,16.8,0,25.2,0a4.93,4.93,0,0,0,3.63-1.23c1.84-1.66,4.28-2.89,5.6-4.87s1.57-4.65,2.29-7c.14-.47.27-1,.4-1.43.42-1.54.42-1.54-1.3-1.58-.33,0-.66,0-1,0H185.78c-2.07,0-2.08,0-2.65,2q-6.19,21.6-12.4,43.2c-1.28,4.45-2.56,8.91-3.86,13.35-.23.82-.1,1.27.87,1.2.49,0,1,0,1.49,0h29.45c6.49,0,13,0,19.47,0,1,0,1.67-.1,2-1.28,1.22-4.56,2.52-9.09,3.86-13.62.35-1.16-.16-1.26-1.06-1.24-1.58,0-3.16,0-4.74,0H190.74c-1.4,0-1.42,0-1.06-1.31s.79-2.36,1-3.57c.19-.92.62-1.28,1.52-1.21.5,0,1,0,1.5,0h30.45c1.91,0,1.93,0,2.41-1.67q1.69-6,3.36-12C230.41,58.14,230.39,58.1,228.73,58.09Z"/><path class="cls-2" d="M291.13,50.91c-.55-4.44-1.06-8.88-1.63-13.32-.21-1.68-.26-1.7-2-1.71-3.41,0-6.82,0-10.23,0s-6.65,0-10,0a2.76,2.76,0,0,0-2.68,1.29Q247.7,61.42,230.69,85.64a5.59,5.59,0,0,0-.94,1.73c-.63,2.31-1.27,4.62-1.94,6.93-.27.92-.12,1.33,1,1.32,5.23,0,10.47-.06,15.71,0a2.18,2.18,0,0,0,2.14-1.31c1.3-2.21,2.71-4.36,4-6.58a1.94,1.94,0,0,1,2-1.12c2.08.07,4.16,0,6.24,0,5.16,0,10.31,0,15.47,0,1.63,0,1.66,0,1.71,1.6.07,2.07.12,4.14.12,6.21,0,.83.24,1.16,1.13,1.16,4.82,0,9.65-.05,14.47,0,1.06,0,1.42-.43,1.66-1.35.59-2.32,1.25-4.63,1.9-6.94a3.37,3.37,0,0,0,.15-1.45c-.66-5.34-1.29-10.68-1.95-16C292.71,63.55,291.91,57.23,291.13,50.91ZM273.82,71.3c-1.91,0-3.82,0-5.74,0s-3.82,0-5.73,0c-1,0-1.09-.36-.58-1.13q3.66-5.61,7.3-11.25c1.17-1.8,2.33-3.62,3.49-5.43.17-.28.34-.6.73-.55s.46.41.5.73c.09.74.2,1.48.25,2.22.33,4.71.62,9.41,1,14.11C275.1,71,274.8,71.33,273.82,71.3Z"/><path class="cls-2" d="M85.53,66.38c-.67-2.32-.67-2.33,1-4q7.68-8,15.39-16a6.59,6.59,0,0,0,1.89-2.86c.58-2.15,1.16-4.31,1.86-6.43.38-1.14-.07-1.22-1-1.21-4.49,0-9,.07-13.47,0A3.84,3.84,0,0,0,88,37.27c-5.64,6.2-11.35,12.34-17,18.54a3.73,3.73,0,0,1-3.19,1.44c-2.74-.12-5.49,0-8.24,0-1.84,0-1.84,0-1.37-1.75.07-.24.17-.47.24-.71C60.12,48.88,61.8,43,63.57,37.12c.32-1,.12-1.27-.91-1.26-2.58,0-5.16,0-7.74,0-2.41,0-4.83,0-7.24,0-1.8,0-1.81,0-2.32,1.77q-2.61,9.06-5.22,18.13Q34.67,74.88,29.21,94c-.45,1.57-.43,1.61,1.24,1.62,4.91,0,9.82,0,14.72,0,1.25,0,1.66-.43,2-1.6C48.83,88,50.67,82,52.34,75.89a1.89,1.89,0,0,1,2.23-1.65c3.57.08,7.15,0,10.73,0,2.78,0,2.78,0,3.51,2.55,1.67,5.81,3.36,11.61,5,17.44.26.95.6,1.37,1.65,1.36q6.12-.08,12.23,0a1.34,1.34,0,0,0,1.56-1.15c.55-2.08,1.06-4.18,1.74-6.22a5.33,5.33,0,0,0,0-3.35C89.09,78.74,87.32,72.56,85.53,66.38Z"/></g></g></svg>